<svg width="290" height="235" viewBox="0 0 290 235" fill="none" xmlns="http://www.w3.org/2000/svg">
<mask id="path-1-inside-1_0_51" fill="white">
<path fill-rule="evenodd" clip-rule="evenodd" d="M245.305 0H290V235H0V0H46.7742"/>
</mask>
<path d="M245.305 -2C244.2 -2 243.305 -1.10457 243.305 0C243.305 1.10457 244.2 2 245.305 2V-2ZM290 0H292C292 -1.10457 291.105 -2 290 -2V0ZM290 235V237C291.105 237 292 236.105 292 235H290ZM0 235H-2C-2 236.105 -1.10457 237 0 237L0 235ZM0 0V-2C-1.10457 -2 -2 -1.10457 -2 0L0 0ZM46.7742 2C47.8788 2 48.7742 1.10457 48.7742 0C48.7742 -1.10457 47.8788 -2 46.7742 -2V2ZM245.305 0V2H290V0V-2H245.305V0ZM290 0H288V235H290H292V0H290ZM290 235V233H0V235V237H290V235ZM0 235H2V0H0H-2V235H0ZM0 0V2H46.7742V0V-2H0V0Z" fill="#A0BC57" mask="url(#path-1-inside-1_0_51)"/>
</svg>
