<svg width="180" height="42" viewBox="0 0 180 42" fill="none" xmlns="http://www.w3.org/2000/svg">
<path fill-rule="evenodd" clip-rule="evenodd" d="M0 7.64361H5.41832V10.4217C6.66647 8.77706 8.30533 7.27832 11.0511 7.27832C13.5458 7.27832 15.4347 8.41122 16.4334 10.3852C18.1089 8.37474 20.105 7.27832 22.7069 7.27832C26.7359 7.27832 29.1589 9.76351 29.1589 14.4797V27.2366H23.7406V16.3067C23.7406 13.675 22.5997 12.3227 20.568 12.3227C18.5368 12.3227 17.2886 13.675 17.2886 16.3067V27.2366H11.8703V16.3067C11.8703 13.675 10.7294 12.3227 8.69766 12.3227C6.66647 12.3227 5.41832 13.675 5.41832 16.3067V27.2366H0V7.64361V7.64361Z" fill="white"/>
<path fill-rule="evenodd" clip-rule="evenodd" d="M46.4492 17.55V17.4765C46.4492 14.5895 44.4174 12.0662 41.4232 12.0662C38.3217 12.0662 36.4678 14.516 36.4678 17.4035V17.4765C36.4678 20.3645 38.4995 22.8862 41.4938 22.8862C44.5953 22.8862 46.4492 20.438 46.4492 17.55M31.1206 17.55V17.4765C31.1206 11.8474 35.5414 7.27877 41.4938 7.27877C47.4117 7.27877 51.7969 11.7739 51.7969 17.4035V17.4765C51.7969 23.1061 47.3756 27.6753 41.4232 27.6753C35.5053 27.6753 31.1206 23.1785 31.1206 17.55" fill="white"/>
<mask id="mask0_0_88" style="mask-type:luminance" maskUnits="userSpaceOnUse" x="53" y="0" width="21" height="28">
<path fill-rule="evenodd" clip-rule="evenodd" d="M73.8578 0.552853H53.7878L53.7878 27.6017H73.8578V0.552853V0.552853Z" fill="white"/>
</mask>
<g mask="url(#mask0_0_88)">
<path fill-rule="evenodd" clip-rule="evenodd" d="M68.5101 17.4764V17.404C68.5101 14.1495 66.4078 11.9937 63.8765 11.9937C61.3451 11.9937 59.2067 14.1136 59.2067 17.404V17.4764C59.2067 20.7303 61.3451 22.8866 63.8765 22.8866C66.4078 22.8866 68.5101 20.7303 68.5101 17.4764M53.7878 17.4764V17.404C53.7878 10.8603 57.9586 7.27866 62.486 7.27866C65.3731 7.27866 67.1558 8.63095 68.4395 10.2026V0.552576H73.8578V27.2364H68.4395V24.4218C67.1197 26.2494 65.3025 27.6017 62.486 27.6017C58.0302 27.6017 53.7878 24.0195 53.7878 17.4764" fill="white"/>
</g>
<path fill-rule="evenodd" clip-rule="evenodd" d="M96.8213 7.64361H102.24V11.5916C103.345 8.88593 105.127 7.13132 108.335 7.27832V13.0898H108.05C104.45 13.0898 102.24 15.3197 102.24 19.9982V27.2366H96.8213V7.64361Z" fill="white"/>
<path fill-rule="evenodd" clip-rule="evenodd" d="M110.564 7.64361H115.983V10.4217C117.231 8.77706 118.835 7.27832 121.579 7.27832C125.679 7.27832 128.067 10.0559 128.067 14.5521V27.2366H122.649V16.3067C122.649 13.675 121.436 12.3227 119.369 12.3227C117.301 12.3227 115.983 13.675 115.983 16.3067V27.2366H110.564V7.64361Z" fill="white"/>
<path fill-rule="evenodd" clip-rule="evenodd" d="M130.542 5.48675H136.245V0.552853H130.542V5.48675Z" fill="white"/>
<path fill-rule="evenodd" clip-rule="evenodd" d="M130.685 27.2367H136.103V7.64367H130.685V27.2367Z" fill="white"/>
<path fill-rule="evenodd" clip-rule="evenodd" d="M85.3572 11.7376C87.5016 11.7376 88.8899 13.2242 89.3151 15.4657H81.3094C81.8267 13.1938 83.2441 11.7376 85.3572 11.7376M94.6606 17.9149C94.6606 12.3588 91.7381 7.27843 85.3572 7.27843C79.7961 7.27843 75.9099 11.8841 75.9099 17.4761V17.5502C75.9099 23.5446 80.1523 27.675 85.8913 27.675C89.3496 27.675 91.9164 26.2867 93.6981 24.0199L90.5977 21.2053C89.1 22.63 87.7813 23.2152 85.963 23.2152C83.5389 23.2152 81.8278 21.9 81.2932 19.3772H94.59C94.6256 18.866 94.6606 18.3537 94.6606 17.9149" fill="white"/>
<path fill-rule="evenodd" clip-rule="evenodd" d="M155.032 11.5551V7.64356H138.742V12.1398H148.295L138.421 23.325V27.2366H141.125L155.032 11.5551Z" fill="white"/>
<path fill-rule="evenodd" clip-rule="evenodd" d="M165.588 23.2151C165.524 23.2151 165.461 23.2101 165.398 23.2085L168.909 27.1565C170.72 26.5585 172.183 25.4704 173.324 24.0197L170.223 21.2052C168.726 22.6304 167.407 23.2151 165.588 23.2151" fill="white"/>
<path fill-rule="evenodd" clip-rule="evenodd" d="M160.935 15.4658C161.452 13.1939 162.87 11.7377 164.983 11.7377C167.127 11.7377 168.515 13.2238 168.94 15.4658H160.935ZM164.983 7.27854C160.977 7.27854 157.849 9.67476 156.408 13.1022L161.99 19.3773H174.216C174.251 18.8661 174.286 18.3538 174.286 17.915C174.286 12.3589 171.364 7.27854 164.983 7.27854V7.27854Z" fill="white"/>
<path fill-rule="evenodd" clip-rule="evenodd" d="M149.827 27.2427H155.032V22.7399H149.827V27.2427Z" fill="#FEC14B"/>
<path fill-rule="evenodd" clip-rule="evenodd" d="M0 41.7111V35.5172H1.38395V38.0333H3.77515V35.5172H5.1591V41.7111H3.77515V39.1386H1.38395V41.7111H0Z" fill="white"/>
<path fill-rule="evenodd" clip-rule="evenodd" d="M10.2813 40.7108C11.3586 40.7108 11.862 39.7675 11.862 38.6141C11.862 37.4608 11.343 36.5175 10.2733 36.5175C9.19595 36.5175 8.6926 37.4608 8.6926 38.6141C8.6926 39.7675 9.21158 40.7108 10.2813 40.7108M10.2813 35.4288C12.2242 35.4288 13.2621 36.7993 13.2621 38.6141C13.2621 40.4124 12.2317 41.7995 10.2733 41.7995C8.33098 41.7995 7.29248 40.429 7.29248 38.6141C7.29248 36.8159 8.3229 35.4288 10.2813 35.4288" fill="white"/>
<path fill-rule="evenodd" clip-rule="evenodd" d="M21.8919 35.5173V41.7112H20.5236V37.6223H20.508L19.2097 41.7112H18.0462L16.7484 37.6383H16.7328V41.7112H15.3958V35.5173H17.2593L18.6519 39.9776H18.6675L20.0515 35.5173H21.8919Z" fill="white"/>
<path fill-rule="evenodd" clip-rule="evenodd" d="M24.2615 41.7111V35.5172H28.485V36.6142H25.6379V38.0416H28.1072V39.1303H25.6379V40.6141H28.54V41.7111H24.2615Z" fill="white"/>
<path fill-rule="evenodd" clip-rule="evenodd" d="M34.2759 41.7111V35.5172H38.0117V35.9604H34.7636V38.3643H37.6264V38.8076H34.7636V41.2679H38.0667V41.7111H34.2759Z" fill="white"/>
<path fill-rule="evenodd" clip-rule="evenodd" d="M46.303 35.5173V41.7112H45.8153V36.2109H45.7997L43.5895 41.7112H43.1336L40.9235 36.2269H40.9079V41.7112H40.4282V35.5173H41.1439L43.3616 41.0337H43.3772L45.5873 35.5173H46.303Z" fill="white"/>
<path fill-rule="evenodd" clip-rule="evenodd" d="M51.4565 38.5577C51.9755 38.5577 52.4083 38.2592 52.4083 37.59C52.4083 36.9208 51.9755 36.6141 51.4565 36.6141H50.2299V38.5577H51.4565ZM51.5902 35.5171C52.8092 35.5171 53.8084 36.2515 53.8084 37.5657C53.8084 38.8887 52.8329 39.6546 51.5665 39.6546H50.2299V41.711H48.8455V35.5171H51.5902Z" fill="white"/>
<path fill-rule="evenodd" clip-rule="evenodd" d="M58.5763 40.7108C59.6536 40.7108 60.1569 39.7675 60.1569 38.6141C60.1569 37.4608 59.6379 36.5175 58.5682 36.5175C57.4909 36.5175 56.9875 37.4608 56.9875 38.6141C56.9875 39.7675 57.5065 40.7108 58.5763 40.7108M58.5763 35.4288C60.5191 35.4288 61.557 36.7993 61.557 38.6141C61.557 40.4124 60.5266 41.7995 58.5682 41.7995C56.6259 41.7995 55.5874 40.429 55.5874 38.6141C55.5874 36.8159 56.6178 35.4288 58.5763 35.4288" fill="white"/>
<path fill-rule="evenodd" clip-rule="evenodd" d="M71.5865 35.5173L69.8878 41.7112H68.4009L67.3554 37.4935H67.3393L66.2857 41.7112H64.7681L63.0688 35.5173H64.5164L65.6018 39.961H65.6174L66.6236 35.5173H68.1105L69.1172 39.9129H69.1328L70.1945 35.5173H71.5865Z" fill="white"/>
<path fill-rule="evenodd" clip-rule="evenodd" d="M73.4768 41.7111V35.5172H77.7003V36.6142H74.8532V38.0416H77.3226V39.1303H74.8532V40.6141H77.7553V41.7111H73.4768Z" fill="white"/>
<path fill-rule="evenodd" clip-rule="evenodd" d="M81.2253 38.2274H82.515C82.9477 38.2274 83.3093 37.9687 83.3093 37.4205C83.3093 36.864 82.9477 36.6142 82.515 36.6142H81.2253V38.2274ZM82.3026 39.3077H81.2253V41.7111H79.8408V35.5172H82.6723C83.852 35.5172 84.7014 36.1705 84.7014 37.3238C84.7014 38.1384 84.2605 38.7109 83.6003 38.985L84.8744 41.7111H83.3562L82.3026 39.3077Z" fill="white"/>
<path fill-rule="evenodd" clip-rule="evenodd" d="M92.8667 35.5173V41.7112H92.3795V36.2109H92.3634L90.1533 41.7112H89.6973L87.4872 36.2269H87.4716V41.7112H86.9919V35.5173H87.7076L89.9258 41.0337H89.9409L92.151 35.5173H92.8667Z" fill="white"/>
<path fill-rule="evenodd" clip-rule="evenodd" d="M95.5828 41.7111V35.5172H99.3186V35.9604H96.0699V38.3643H98.9327V38.8076H96.0699V41.2679H99.3735V41.7111H95.5828Z" fill="white"/>
<path fill-rule="evenodd" clip-rule="evenodd" d="M106.445 35.5173V41.7112H106.013L102.23 36.3319H102.214V41.7112H101.735V35.5173H102.238L105.95 40.8082H105.966V35.5173H106.445Z" fill="white"/>
<path fill-rule="evenodd" clip-rule="evenodd" d="M110.773 41.7111V35.9604H108.555V35.5172H113.479V35.9604H111.261V41.7111H110.773Z" fill="white"/>
<path fill-rule="evenodd" clip-rule="evenodd" d="M114.762 36.4595C114.783 36.5314 114.801 36.5629 114.84 36.5938C114.898 36.6425 114.99 36.6679 115.096 36.6679C115.262 36.6679 115.366 36.5916 115.366 36.4706C115.366 36.386 115.311 36.3319 115.197 36.3004L114.934 36.2307C114.795 36.1932 114.726 36.155 114.677 36.0882C114.623 36.0185 114.596 35.9373 114.596 35.8467C114.596 35.5963 114.789 35.4289 115.08 35.4289C115.227 35.4289 115.358 35.4709 115.456 35.5505C115.516 35.6007 115.546 35.645 115.571 35.7312L115.337 35.7897C115.301 35.6831 115.219 35.6322 115.082 35.6322C114.94 35.6322 114.848 35.6997 114.848 35.8041C114.848 35.8865 114.909 35.9412 115.039 35.9749L115.272 36.0335C115.42 36.0732 115.508 36.1241 115.56 36.2059C115.604 36.2705 115.627 36.3462 115.627 36.4325C115.627 36.6994 115.411 36.8712 115.082 36.8712C114.912 36.8712 114.771 36.827 114.661 36.7392C114.594 36.6822 114.56 36.6259 114.525 36.5126L114.762 36.4595Z" fill="white"/>
<path fill-rule="evenodd" clip-rule="evenodd" d="M116.926 36.8502V35.624L116.548 36.8502H116.419L116.039 35.624V36.8502H115.839V35.4499H116.224L116.509 36.3529L116.791 35.4499H117.178V36.8502H116.926Z" fill="white"/>
<path fill-rule="evenodd" clip-rule="evenodd" d="M175.826 8.44692C175.733 8.20708 175.619 8.13137 175.374 8.13137C175.148 8.13137 175.019 8.21923 175.019 8.36679C175.019 8.52318 175.113 8.59116 175.393 8.64697C175.783 8.73097 175.943 8.78237 176.075 8.87466C176.294 9.02663 176.411 9.25044 176.411 9.50631C176.411 9.78594 176.263 10.0617 176.029 10.2176C175.861 10.3297 175.616 10.3894 175.343 10.3894C175.038 10.3894 174.793 10.3137 174.598 10.1617C174.434 10.0297 174.36 9.90973 174.287 9.65L174.848 9.51792C174.921 9.77379 175.085 9.88984 175.374 9.88984C175.631 9.88984 175.791 9.78208 175.791 9.61021C175.791 9.44994 175.686 9.37866 175.339 9.30626C175.051 9.24658 174.883 9.19021 174.738 9.09847C174.536 8.97468 174.422 8.75473 174.422 8.49113C174.422 8.243 174.512 8.03521 174.688 7.8755C174.863 7.71579 175.077 7.64339 175.37 7.64339C175.651 7.64339 175.877 7.71137 176.052 7.84731C176.188 7.95176 176.259 8.05566 176.34 8.27118L175.826 8.44692Z" fill="white"/>
<path fill-rule="evenodd" clip-rule="evenodd" d="M177.321 8.17519V10.3498H176.811V7.68335H177.758L178.213 9.27824L178.697 7.68335H179.645V10.3498H179.033V8.17519L178.378 10.3498H177.961L177.321 8.17519Z" fill="white"/>
</svg>
